<svg xmlns="http://www.w3.org/2000/svg" width="1949" height="423.281" viewBox="0 0 1949 423.281">
  <metadata><?xpacket begin="﻿" id="W5M0MpCehiHzreSzNTczkc9d"?>
<x:xmpmeta xmlns:x="adobe:ns:meta/" x:xmptk="Adobe XMP Core 5.6-c140 79.160451, 2017/05/06-01:08:21        ">
   <rdf:RDF xmlns:rdf="http://www.w3.org/1999/02/22-rdf-syntax-ns#">
      <rdf:Description rdf:about=""/>
   </rdf:RDF>
</x:xmpmeta>
                                                                                                    
                                                                                                    
                                                                                                    
                                                                                                    
                                                                                                    
                                                                                                    
                                                                                                    
                                                                                                    
                                                                                                    
                                                                                                    
                                                                                                    
                                                                                                    
                                                                                                    
                                                                                                    
                                                                                                    
                                                                                                    
                                                                                                    
                                                                                                    
                                                                                                    
                                                                                                    
                           
<?xpacket end="w"?></metadata>
<defs>
    <style>
      .cls-1 {
        fill: #fff;
        fill-rule: evenodd;
      }
    </style>
  </defs>
  <path class="cls-1" d="M-1.984,0h1951c0,178.885,0,357.652.98,403.7-66.47,6.079-132.95,11.008-199.42,15.886-53.13,1.668-106.28,2.755-159.42,3.69q-20.97-.438-41.96-0.808t-41.97-.741q-20.97-.372-41.9-0.784l-5.23-.106-5.23-.11q-5.235-.109-10.45-0.227-10.455-.236-20.87-0.5c-55.58-1.423-110.62-3.556-164.36-7.944-82.22-4.308-164.44-9.994-246.57-17.558-183.3-22-457.64-35.193-652.685-12.216C221.228,397.642,107.787,414.59-1.889,404.217c-0.076-33.524-.088-87.074-0.093-157.992,0-70.328,0-158.025,0-246.225h0Z"/>
</svg>
